<svg width="428" height="926" viewBox="0 0 428 926" fill="none" xmlns="http://www.w3.org/2000/svg">
<g clip-path="url(#clip0_3_2)">
<rect width="428" height="926" fill="#A81F2B"/>
<rect x="273.045" y="808.608" width="227.541" height="59.928" transform="rotate(45 273.045 808.608)" fill="url(#paint0_linear_3_2)" fill-opacity="0.5"/>
<rect x="273.045" y="514.828" width="227.541" height="59.928" transform="rotate(45 273.045 514.828)" fill="url(#paint1_linear_3_2)" fill-opacity="0.5"/>
<rect x="579.229" y="905.762" width="265.424" height="59.928" transform="rotate(-135 579.229 905.762)" fill="url(#paint2_linear_3_2)" fill-opacity="0.5"/>
<rect x="273.045" y="221.047" width="227.541" height="59.928" transform="rotate(45 273.045 221.047)" fill="url(#paint3_linear_3_2)" fill-opacity="0.5"/>
<rect x="579.229" y="611.981" width="265.424" height="59.928" transform="rotate(-135 579.229 611.981)" fill="url(#paint4_linear_3_2)" fill-opacity="0.5"/>
<rect x="273.045" y="-72.7338" width="227.541" height="59.928" transform="rotate(45 273.045 -72.7338)" fill="url(#paint5_linear_3_2)" fill-opacity="0.5"/>
<rect x="579.229" y="318.201" width="265.424" height="59.928" transform="rotate(-135 579.229 318.201)" fill="url(#paint6_linear_3_2)" fill-opacity="0.5"/>
<rect x="579.229" y="25.9344" width="265.424" height="59.928" transform="rotate(-135 579.229 25.9344)" fill="url(#paint7_linear_3_2)" fill-opacity="0.5"/>
<rect x="-114.624" y="710.177" width="227.541" height="59.928" transform="rotate(45 -114.624 710.177)" fill="url(#paint8_linear_3_2)" fill-opacity="0.5"/>
<rect x="191.559" y="1101.11" width="265.424" height="59.928" transform="rotate(-135 191.559 1101.11)" fill="url(#paint9_linear_3_2)" fill-opacity="0.5"/>
<rect x="-114.624" y="416.396" width="227.541" height="59.928" transform="rotate(45 -114.624 416.396)" fill="url(#paint10_linear_3_2)" fill-opacity="0.5"/>
<rect x="191.559" y="807.331" width="265.424" height="59.928" transform="rotate(-135 191.559 807.331)" fill="url(#paint11_linear_3_2)" fill-opacity="0.5"/>
<rect x="-114.624" y="122.615" width="227.541" height="59.928" transform="rotate(45 -114.624 122.615)" fill="url(#paint12_linear_3_2)" fill-opacity="0.5"/>
<rect x="191.559" y="513.55" width="265.424" height="59.928" transform="rotate(-135 191.559 513.55)" fill="url(#paint13_linear_3_2)" fill-opacity="0.5"/>
<rect x="-114.624" y="-169.651" width="227.541" height="59.928" transform="rotate(45 -114.624 -169.651)" fill="url(#paint14_linear_3_2)" fill-opacity="0.5"/>
<rect x="191.559" y="221.283" width="265.424" height="59.928" transform="rotate(-135 191.559 221.283)" fill="url(#paint15_linear_3_2)" fill-opacity="0.5"/>
</g>
<defs>
<linearGradient id="paint0_linear_3_2" x1="386.84" y1="838.572" x2="293.085" y2="838.441" gradientUnits="userSpaceOnUse">
<stop stop-color="#B9432F"/>
<stop offset="1" stop-color="#C4C4C4" stop-opacity="0"/>
</linearGradient>
<linearGradient id="paint1_linear_3_2" x1="386.84" y1="544.792" x2="293.085" y2="544.661" gradientUnits="userSpaceOnUse">
<stop stop-color="#B9432F"/>
<stop offset="1" stop-color="#C4C4C4" stop-opacity="0"/>
</linearGradient>
<linearGradient id="paint2_linear_3_2" x1="712.087" y1="935.726" x2="602.605" y2="935.574" gradientUnits="userSpaceOnUse">
<stop stop-color="#B9432F"/>
<stop offset="1" stop-color="#C4C4C4" stop-opacity="0"/>
</linearGradient>
<linearGradient id="paint3_linear_3_2" x1="386.84" y1="251.011" x2="293.085" y2="250.88" gradientUnits="userSpaceOnUse">
<stop stop-color="#B9432F"/>
<stop offset="1" stop-color="#C4C4C4" stop-opacity="0"/>
</linearGradient>
<linearGradient id="paint4_linear_3_2" x1="712.087" y1="641.945" x2="602.605" y2="641.794" gradientUnits="userSpaceOnUse">
<stop stop-color="#B9432F"/>
<stop offset="1" stop-color="#C4C4C4" stop-opacity="0"/>
</linearGradient>
<linearGradient id="paint5_linear_3_2" x1="386.84" y1="-42.7697" x2="293.085" y2="-42.9008" gradientUnits="userSpaceOnUse">
<stop stop-color="#B9432F"/>
<stop offset="1" stop-color="#C4C4C4" stop-opacity="0"/>
</linearGradient>
<linearGradient id="paint6_linear_3_2" x1="712.087" y1="348.164" x2="602.605" y2="348.013" gradientUnits="userSpaceOnUse">
<stop stop-color="#B9432F"/>
<stop offset="1" stop-color="#C4C4C4" stop-opacity="0"/>
</linearGradient>
<linearGradient id="paint7_linear_3_2" x1="712.087" y1="55.8982" x2="602.605" y2="55.7467" gradientUnits="userSpaceOnUse">
<stop stop-color="#B9432F"/>
<stop offset="1" stop-color="#C4C4C4" stop-opacity="0"/>
</linearGradient>
<linearGradient id="paint8_linear_3_2" x1="-0.829128" y1="740.141" x2="-94.5847" y2="740.01" gradientUnits="userSpaceOnUse">
<stop stop-color="#B9432F"/>
<stop offset="1" stop-color="#C4C4C4" stop-opacity="0"/>
</linearGradient>
<linearGradient id="paint9_linear_3_2" x1="324.418" y1="1131.07" x2="214.935" y2="1130.92" gradientUnits="userSpaceOnUse">
<stop stop-color="#B9432F"/>
<stop offset="1" stop-color="#C4C4C4" stop-opacity="0"/>
</linearGradient>
<linearGradient id="paint10_linear_3_2" x1="-0.829128" y1="446.36" x2="-94.5847" y2="446.229" gradientUnits="userSpaceOnUse">
<stop stop-color="#B9432F"/>
<stop offset="1" stop-color="#C4C4C4" stop-opacity="0"/>
</linearGradient>
<linearGradient id="paint11_linear_3_2" x1="324.418" y1="837.294" x2="214.935" y2="837.143" gradientUnits="userSpaceOnUse">
<stop stop-color="#B9432F"/>
<stop offset="1" stop-color="#C4C4C4" stop-opacity="0"/>
</linearGradient>
<linearGradient id="paint12_linear_3_2" x1="-0.829128" y1="152.579" x2="-94.5847" y2="152.448" gradientUnits="userSpaceOnUse">
<stop stop-color="#B9432F"/>
<stop offset="1" stop-color="#C4C4C4" stop-opacity="0"/>
</linearGradient>
<linearGradient id="paint13_linear_3_2" x1="324.418" y1="543.514" x2="214.935" y2="543.362" gradientUnits="userSpaceOnUse">
<stop stop-color="#B9432F"/>
<stop offset="1" stop-color="#C4C4C4" stop-opacity="0"/>
</linearGradient>
<linearGradient id="paint14_linear_3_2" x1="-0.829128" y1="-139.687" x2="-94.5847" y2="-139.818" gradientUnits="userSpaceOnUse">
<stop stop-color="#B9432F"/>
<stop offset="1" stop-color="#C4C4C4" stop-opacity="0"/>
</linearGradient>
<linearGradient id="paint15_linear_3_2" x1="324.418" y1="251.247" x2="214.935" y2="251.096" gradientUnits="userSpaceOnUse">
<stop stop-color="#B9432F"/>
<stop offset="1" stop-color="#C4C4C4" stop-opacity="0"/>
</linearGradient>
<clipPath id="clip0_3_2">
<rect width="428" height="926" fill="white"/>
</clipPath>
</defs>
</svg>
